<?xml version="1.0" encoding="UTF-8" standalone="no"?>
<!DOCTYPE svg PUBLIC "-//W3C//DTD SVG 1.1//EN" "http://www.w3.org/Graphics/SVG/1.1/DTD/svg11.dtd">
<svg width="100%" height="100%" viewBox="0 0 224 155" version="1.1" xmlns="http://www.w3.org/2000/svg" xmlns:xlink="http://www.w3.org/1999/xlink" xml:space="preserve" xmlns:serif="http://www.serif.com/" style="fill-rule:evenodd;clip-rule:evenodd;stroke-linejoin:round;stroke-miterlimit:2;">
    <g transform="matrix(0.375,0,0,0.375,0,0)">
        <rect id="Artboard1" x="0" y="0" width="597" height="411" style="fill:none;"/>
        <g id="Artboard11" serif:id="Artboard1">
            <g transform="matrix(1.98746,0,0,1.98746,-139.98,-174.137)">
                <g transform="matrix(144,0,0,144,110.878,203.044)">
                    <path d="M0.19,0.02L0.244,0.02C0.285,0.02 0.306,0.035 0.306,0.063C0.306,0.083 0.298,0.098 0.284,0.109C0.269,0.121 0.249,0.126 0.223,0.126L0.147,0.126L0.112,0.196L0.098,0.225C0.053,0.315 -0.011,0.36 -0.095,0.36C-0.146,0.36 -0.188,0.344 -0.222,0.313C-0.256,0.283 -0.273,0.245 -0.273,0.199C-0.273,0.172 -0.267,0.145 -0.253,0.119C-0.24,0.093 -0.222,0.073 -0.201,0.058C-0.165,0.033 -0.11,0.02 -0.036,0.02L0.065,0.02L0.176,-0.253L0.124,-0.253C0.082,-0.253 0.062,-0.268 0.062,-0.297C0.062,-0.317 0.069,-0.332 0.083,-0.343C0.098,-0.354 0.118,-0.36 0.145,-0.36L0.261,-0.36C0.301,-0.36 0.32,-0.343 0.32,-0.311C0.32,-0.298 0.317,-0.283 0.31,-0.267L0.19,0.02ZM0.022,0.126L-0.046,0.126C-0.121,0.126 -0.158,0.151 -0.158,0.199C-0.158,0.214 -0.153,0.227 -0.143,0.237C-0.132,0.247 -0.119,0.252 -0.102,0.252C-0.078,0.252 -0.057,0.243 -0.039,0.224C-0.02,0.206 -0,0.173 0.022,0.126ZM0.312,-0.529C0.33,-0.529 0.346,-0.523 0.359,-0.509C0.373,-0.496 0.379,-0.48 0.379,-0.461C0.379,-0.443 0.373,-0.426 0.359,-0.413C0.346,-0.4 0.33,-0.394 0.312,-0.394C0.293,-0.394 0.277,-0.4 0.263,-0.413C0.25,-0.426 0.244,-0.443 0.244,-0.461C0.244,-0.48 0.25,-0.496 0.263,-0.509C0.277,-0.523 0.293,-0.529 0.312,-0.529Z" style="fill-rule:nonzero;"/>
                </g>
                <g transform="matrix(144,0,0,144,153.136,203.044)">
                    <path d="M0.39,-0.106L0.447,-0.106C0.469,-0.106 0.485,-0.103 0.495,-0.096C0.504,-0.09 0.509,-0.079 0.509,-0.063C0.509,-0.044 0.501,-0.028 0.487,-0.017C0.472,-0.006 0.452,-0 0.426,-0L0.339,-0C0.312,-0 0.293,-0.011 0.284,-0.032C0.266,-0.011 0.244,-0 0.217,-0L0.146,-0C0.117,-0 0.093,-0.009 0.074,-0.027C0.055,-0.045 0.046,-0.067 0.046,-0.095C0.046,-0.11 0.05,-0.129 0.059,-0.149L0.125,-0.313C0.144,-0.358 0.169,-0.38 0.201,-0.38C0.215,-0.38 0.227,-0.376 0.237,-0.367C0.247,-0.358 0.251,-0.347 0.251,-0.334C0.251,-0.324 0.249,-0.313 0.244,-0.3L0.187,-0.162L0.182,-0.147C0.179,-0.139 0.177,-0.132 0.177,-0.128C0.176,-0.113 0.186,-0.106 0.205,-0.106C0.245,-0.106 0.272,-0.122 0.286,-0.155L0.347,-0.305C0.365,-0.351 0.391,-0.374 0.424,-0.374C0.438,-0.374 0.449,-0.369 0.459,-0.36C0.469,-0.351 0.474,-0.34 0.474,-0.327C0.474,-0.317 0.469,-0.301 0.461,-0.28L0.39,-0.106Z" style="fill-rule:nonzero;"/>
                </g>
                <g transform="matrix(144,0,0,144,222.394,203.044)">
                    <path d="M0.408,-0.106L0.466,-0.106C0.508,-0.106 0.528,-0.092 0.528,-0.063C0.528,-0.043 0.521,-0.028 0.506,-0.017C0.492,-0.006 0.472,-0 0.446,-0L0.344,-0C0.324,-0 0.307,-0.006 0.293,-0.018C0.28,-0.03 0.273,-0.045 0.273,-0.063C0.273,-0.075 0.278,-0.091 0.287,-0.113L0.33,-0.22C0.335,-0.231 0.337,-0.24 0.337,-0.247C0.338,-0.254 0.334,-0.261 0.328,-0.267C0.321,-0.272 0.313,-0.275 0.302,-0.275C0.269,-0.275 0.242,-0.25 0.221,-0.199L0.164,-0.058C0.146,-0.015 0.121,0.007 0.086,0.007C0.072,0.007 0.061,0.003 0.051,-0.006C0.041,-0.014 0.036,-0.025 0.036,-0.037C0.036,-0.046 0.039,-0.057 0.044,-0.07L0.049,-0.083L0.148,-0.326C0.161,-0.358 0.182,-0.374 0.213,-0.374C0.238,-0.374 0.256,-0.362 0.267,-0.34C0.301,-0.367 0.335,-0.38 0.366,-0.38C0.397,-0.38 0.422,-0.372 0.442,-0.354C0.462,-0.336 0.472,-0.314 0.472,-0.287C0.472,-0.272 0.468,-0.256 0.461,-0.238L0.408,-0.106Z" style="fill-rule:nonzero;"/>
                </g>
                <g transform="matrix(144,0,0,144,294.464,203.044)">
                    <path d="M0.344,-0.207L0.419,-0.088C0.429,-0.073 0.434,-0.061 0.434,-0.052C0.434,-0.037 0.427,-0.023 0.415,-0.011C0.402,0.001 0.388,0.007 0.373,0.007C0.359,0.007 0.347,-0 0.337,-0.015L0.331,-0.024L0.218,-0.193L0.163,-0.058C0.146,-0.015 0.12,0.007 0.086,0.007C0.072,0.007 0.06,0.003 0.05,-0.006C0.041,-0.015 0.036,-0.025 0.036,-0.038C0.036,-0.047 0.039,-0.058 0.044,-0.07L0.049,-0.083L0.258,-0.599L0.264,-0.612C0.279,-0.648 0.303,-0.667 0.335,-0.667C0.349,-0.667 0.361,-0.662 0.371,-0.653C0.38,-0.644 0.385,-0.633 0.385,-0.62C0.385,-0.61 0.383,-0.599 0.377,-0.586L0.372,-0.573L0.248,-0.267L0.357,-0.348C0.38,-0.365 0.4,-0.374 0.416,-0.374C0.43,-0.374 0.441,-0.369 0.45,-0.36C0.459,-0.352 0.464,-0.341 0.464,-0.328C0.464,-0.306 0.452,-0.286 0.428,-0.268L0.417,-0.26L0.344,-0.207Z" style="fill-rule:nonzero;"/>
                </g>
                <g transform="matrix(144,0,0,144,146.878,266.114)">
                    <path d="M0.326,-0L0.184,-0C0.143,-0 0.11,-0.014 0.084,-0.043C0.059,-0.072 0.046,-0.109 0.046,-0.154C0.046,-0.215 0.067,-0.268 0.109,-0.313C0.151,-0.358 0.201,-0.38 0.257,-0.38C0.296,-0.38 0.327,-0.37 0.351,-0.348C0.375,-0.327 0.387,-0.299 0.387,-0.264C0.387,-0.24 0.381,-0.22 0.369,-0.205C0.357,-0.189 0.342,-0.182 0.323,-0.182C0.293,-0.182 0.278,-0.196 0.278,-0.224L0.278,-0.234C0.278,-0.238 0.278,-0.241 0.278,-0.245C0.278,-0.267 0.267,-0.279 0.245,-0.279C0.223,-0.279 0.204,-0.268 0.187,-0.245C0.169,-0.223 0.161,-0.198 0.161,-0.17C0.161,-0.147 0.168,-0.13 0.182,-0.121C0.196,-0.111 0.22,-0.106 0.254,-0.106L0.346,-0.106C0.388,-0.106 0.408,-0.092 0.408,-0.063C0.408,-0.043 0.401,-0.028 0.386,-0.017C0.371,-0.006 0.351,-0 0.326,-0Z" style="fill-rule:nonzero;"/>
                </g>
                <g transform="matrix(144,0,0,144,201.652,266.114)">
                    <path d="M0.272,-0.38C0.319,-0.38 0.358,-0.365 0.388,-0.335C0.419,-0.306 0.434,-0.267 0.434,-0.221C0.434,-0.186 0.426,-0.152 0.41,-0.117C0.394,-0.083 0.374,-0.056 0.348,-0.035C0.331,-0.022 0.314,-0.013 0.295,-0.007C0.278,-0.002 0.252,-0 0.22,-0C0.167,-0 0.131,-0.006 0.112,-0.019C0.069,-0.049 0.047,-0.093 0.047,-0.152C0.047,-0.214 0.069,-0.267 0.114,-0.313C0.158,-0.358 0.211,-0.38 0.272,-0.38ZM0.26,-0.276C0.236,-0.276 0.214,-0.264 0.194,-0.241C0.174,-0.217 0.165,-0.191 0.165,-0.162C0.165,-0.124 0.186,-0.105 0.228,-0.105C0.253,-0.105 0.272,-0.113 0.285,-0.128C0.307,-0.153 0.318,-0.182 0.318,-0.214C0.318,-0.233 0.313,-0.248 0.302,-0.259C0.292,-0.271 0.278,-0.276 0.26,-0.276Z" style="fill-rule:nonzero;"/>
                </g>
                <g transform="matrix(144,0,0,144,261.277,266.114)">
                    <path d="M0.633,-0.106L0.691,-0.106C0.732,-0.106 0.753,-0.092 0.753,-0.063C0.753,-0.043 0.746,-0.028 0.731,-0.017C0.717,-0.006 0.697,-0 0.671,-0L0.572,-0C0.55,-0 0.533,-0.006 0.52,-0.017C0.506,-0.028 0.5,-0.043 0.5,-0.062C0.5,-0.075 0.504,-0.092 0.513,-0.114L0.559,-0.226C0.561,-0.232 0.563,-0.238 0.563,-0.244C0.563,-0.265 0.552,-0.275 0.53,-0.275C0.514,-0.275 0.497,-0.268 0.481,-0.253C0.465,-0.238 0.452,-0.218 0.442,-0.193L0.387,-0.059C0.369,-0.015 0.343,0.007 0.309,0.007C0.296,0.007 0.284,0.002 0.275,-0.006C0.265,-0.015 0.261,-0.026 0.261,-0.038C0.261,-0.047 0.263,-0.058 0.268,-0.071L0.273,-0.084L0.329,-0.22C0.333,-0.232 0.336,-0.242 0.336,-0.249C0.336,-0.256 0.333,-0.262 0.326,-0.267C0.32,-0.273 0.312,-0.275 0.303,-0.275C0.268,-0.275 0.24,-0.25 0.22,-0.199L0.163,-0.059C0.145,-0.015 0.119,0.007 0.085,0.007C0.072,0.007 0.06,0.003 0.05,-0.006C0.041,-0.015 0.036,-0.025 0.036,-0.038C0.036,-0.047 0.039,-0.058 0.043,-0.071L0.049,-0.084L0.146,-0.323C0.16,-0.357 0.18,-0.374 0.208,-0.374C0.236,-0.374 0.253,-0.36 0.26,-0.333C0.282,-0.352 0.3,-0.365 0.314,-0.371C0.328,-0.377 0.345,-0.38 0.365,-0.38C0.409,-0.38 0.442,-0.361 0.463,-0.323C0.5,-0.361 0.541,-0.38 0.586,-0.38C0.618,-0.38 0.644,-0.371 0.665,-0.353C0.686,-0.335 0.696,-0.313 0.696,-0.287C0.696,-0.27 0.693,-0.253 0.686,-0.235L0.633,-0.106Z" style="fill-rule:nonzero;"/>
                </g>
            </g>
        </g>
    </g>
</svg>
